<?xml version="1.0" encoding="utf-8"?>
<!-- Generator: Adobe Illustrator 22.0.0, SVG Export Plug-In . SVG Version: 6.00 Build 0)  -->
<svg version="1.1" id="Layer_1" xmlns="http://www.w3.org/2000/svg" xmlns:xlink="http://www.w3.org/1999/xlink" x="0px" y="0px"
	 viewBox="0 0 186.1 58.3" style="enable-background:new 0 0 186.1 58.3;" xml:space="preserve">
<style type="text/css">
	.st0{fill:url(#SVGID_1_);}
	.st1{fill:url(#SVGID_2_);}
	.st2{fill:url(#SVGID_3_);}
	.st3{fill:#FFFFFF;}
</style>
<g>
	<g>
		
			<linearGradient id="SVGID_1_" gradientUnits="userSpaceOnUse" x1="131.3533" y1="-765.5845" x2="105.2527" y2="-739.4839" gradientTransform="matrix(1.4676 -4.300000e-03 4.300000e-03 1.4676 -142.2887 1135.9584)">
			<stop  offset="0.1" style="stop-color:#FFFFFF"/>
			<stop  offset="0.2532" style="stop-color:#C6EDF7"/>
			<stop  offset="0.4572" style="stop-color:#80D6EE"/>
			<stop  offset="0.6414" style="stop-color:#49C5E6"/>
			<stop  offset="0.7989" style="stop-color:#21B8E1"/>
			<stop  offset="0.9236" style="stop-color:#09B0DD"/>
			<stop  offset="1" style="stop-color:#00ADDC"/>
		</linearGradient>
		<path class="st0" d="M58.3,28.8c-0.9-8.1-5.4-13.7-14-14.2c-4.7-0.2-10.5,1.7-14.8,7.7c3.6-4.5,8.8-5.4,12.6-3.3
			c5.8,3.3,5.7,15.2-2.3,22.6c-2,1.8-9.2,7.6-19.6,5.3C9.7,44.5,2.4,35.3,1.7,25.4l0,0C1.3,22.2,2,18.6,3.6,15.1
			C1.3,19.3,0,24.1,0,29.2c0,16.1,13.1,29.1,29.2,29.1c16.1,0,29.1-13.1,29.1-29.2C58.3,29,58.3,28.9,58.3,28.8z"/>
		
			<linearGradient id="SVGID_2_" gradientUnits="userSpaceOnUse" x1="505.0393" y1="-745.8447" x2="518.3477" y2="-769.5581" gradientTransform="matrix(1.4676 -4.300000e-03 4.300000e-03 1.4676 -717.5793 1137.6381)">
			<stop  offset="0" style="stop-color:#FFFFFF"/>
			<stop  offset="1" style="stop-color:#00ADDC"/>
		</linearGradient>
		<path class="st1" d="M29.1,0C18.1,0,8.6,6.1,3.6,15.1C2,18.6,1.3,22.2,1.7,25.4c0.5,4.6,3,8.3,8,9.5c7.1,1.8,12.8-2.2,19.3-11.9
			c0.2-0.2,0.3-0.4,0.5-0.7c4.4-6,10.2-7.9,14.8-7.7c8.6,0.5,13.2,6,14,14.2C58.1,12.8,45.1,0,29.1,0z"/>
		
			<linearGradient id="SVGID_3_" gradientUnits="userSpaceOnUse" x1="106.7888" y1="-744.3722" x2="125.4464" y2="-763.0297" gradientTransform="matrix(1.4676 -4.300000e-03 4.300000e-03 1.4676 -142.2887 1135.9584)">
			<stop  offset="5.000000e-02" style="stop-color:#FFFFFF"/>
			<stop  offset="0.1547" style="stop-color:#CBEEF8"/>
			<stop  offset="0.2771" style="stop-color:#96DDF1"/>
			<stop  offset="0.4011" style="stop-color:#68CEEA"/>
			<stop  offset="0.5242" style="stop-color:#43C2E5"/>
			<stop  offset="0.6462" style="stop-color:#25B9E1"/>
			<stop  offset="0.7669" style="stop-color:#11B2DE"/>
			<stop  offset="0.8856" style="stop-color:#04AEDD"/>
			<stop  offset="1" style="stop-color:#00ADDC"/>
		</linearGradient>
		<path class="st2" d="M9.6,34.9c-4.9-1.2-7.5-4.9-8-9.5l0,0c0.8,10,8.1,19.1,18.5,21.5c10.4,2.4,17.6-3.4,19.6-5.3
			c8-7.4,8.1-19.3,2.3-22.6c-3.8-2.2-9-1.2-12.6,3.3c-0.2,0.2-0.3,0.4-0.5,0.7C22.4,32.6,16.8,36.6,9.6,34.9z"/>
	</g>
	<path class="st3" d="M122.3,41.7c-2.6,0-4.6,1.9-4.6,4.4c0,2.2,1.6,4.4,4.6,4.4c3.1,0,4.7-2.2,4.7-4.4
		C126.9,43.5,125,41.7,122.3,41.7 M122.3,49.3c-1.9,0-3.2-1.4-3.2-3.3c0-1.9,1.3-3.2,3.2-3.2c1.9,0,3.3,1.4,3.3,3.2
		C125.5,47.9,124.1,49.3,122.3,49.3z"/>
	<path class="st3" d="M129.8,41.8v8.6h1l0,0c0.2-0.9,0.4-2.1,0.4-3.4v-0.5h3.3v-1.2h-3.3V43h3.3v-1.2H129.8"/>
	<path class="st3" d="M80,45.8c0.8-0.4,1.2-0.9,1.2-1.8c0-1.1-0.8-2.2-2.7-2.2H76v8.6h3c2.2,0,3-1.3,3-2.3
		C82,46.9,81.2,46.1,80,45.8 M78.1,45.4c0,0-0.7,0-0.7,0c0,0,0-2.4,0-2.5c0,0,1,0,1,0c1.2,0,1.4,0.6,1.4,1.1
		C79.8,45,79.3,45.4,78.1,45.4z M80.6,47.9c0,0.5-0.2,1.3-1.8,1.3c0,0-1.6,0-1.6,0c0.1-0.7,0.2-1.6,0.2-2.6c0,0,1.4,0,1.4,0
		C79.9,46.6,80.6,47.1,80.6,47.9z"/>
	<path class="st3" d="M88.8,46.7h-2.5l1.2-2.9L88.8,46.7 M88,41.8h-1l-3.7,8.6h1c0.5-0.5,1-1.4,1.5-2.5h3.5l1.1,2.5h1.3L88,41.8z"/>
	<path class="st3" d="M100.4,41.8v6.5l-5.7-6.5h-1v8.6h0.9l0,0c0.2-0.9,0.4-2.1,0.4-3.4v-3l5.6,6.4h1.1v-8.6H100.4"/>
	<path class="st3" d="M111.6,41.8H110l-3.5,3.8v-3.8h-1.4v8.6h1l0,0c0.2-0.9,0.4-2.1,0.4-3.4v-0.6l4.2,4.1h1.8l-4.7-4.5L111.6,41.8"
		/>
	<path class="st3" d="M154.3,41.7c-2.6,0-4.6,1.9-4.6,4.4c0,2.2,1.6,4.4,4.6,4.4c3.1,0,4.7-2.2,4.7-4.4
		C159,43.5,157,41.7,154.3,41.7 M154.3,49.3c-1.9,0-3.2-1.4-3.2-3.3c0-1.9,1.4-3.2,3.2-3.2c1.9,0,3.3,1.4,3.3,3.2
		C157.6,47.9,156.2,49.3,154.3,49.3z"/>
	<path class="st3" d="M172,46.7c0,0,3.4,0,3.4,0v-1.2c0,0-3.4,0-3.4,0c0,0,0-2.4,0-2.5c0.1,0,3.6,0,3.6,0v-1.2h-4.9v8.6h5v-1.2
		c0,0-3.8,0-3.9,0C172,48.5,172,47.6,172,46.7"/>
	<path class="st3" d="M183.1,46.7h-2.5l1.2-2.9L183.1,46.7 M182.3,41.8h-1l-3.7,8.6h1c0.5-0.5,1-1.4,1.5-2.5h3.5l1.1,2.5h1.4
		L182.3,41.8z"/>
	<path class="st3" d="M148.4,41.8h-1.6l-3.5,3.8v-3.8h-1.4v8.6h1l0,0c0.2-0.9,0.4-2.1,0.4-3.4v-0.6l4.2,4.1h1.8l-4.7-4.5L148.4,41.8
		"/>
	<path class="st3" d="M165.5,44.2c0,0.4-0.1,0.7-0.3,0.9c-0.3,0.3-0.7,0.4-1.3,0.4c0,0-0.7,0-0.7,0c0-0.1,0-2.5,0-2.6
		c0,0,0.7,0,0.7,0C165,42.9,165.5,43.3,165.5,44.2L165.5,44.2 M167.4,48.6c-0.6-1-1.1-1.8-1.8-2.3c0.9-0.4,1.4-1.1,1.4-2.1
		c0-1.5-1.1-2.4-2.9-2.4h-2.2v8.6h1l0,0c0.2-0.9,0.4-2.1,0.4-3.4c0,0,0-0.2,0-0.2c0,0,0.4,0,0.4,0c0.6,0,1.1,0.1,2.2,1.9l1.1,1.8
		h1.5L167.4,48.6z"/>
	<path class="st3" d="M123.9,34.2h3.3V23.8h-7.3v-3.9c0.1,0,10.2,0,10.2,0v-2.8h-23.7v2.8c0,0,10.1,0,10.2,0v3.9h-7.6v2.8h14.9V34.2
		"/>
	<path class="st3" d="M124,10.9V18h2c0,0,1.3-1.9,1.3-5.2c0-3.3,0-4.6,0-4.6h-18.4v2.8H124"/>
	<rect x="135.5" y="21.3" class="st3" width="23.7" height="2.8"/>
	<path class="st3" d="M141.5,31.2c0-0.1,0-5.4,0-5.4h-3.3v6.7c0,0.8,0.7,1.5,1.5,1.5h16.9v-2.8C156.6,31.2,141.6,31.2,141.5,31.2"/>
	<path class="st3" d="M147.3,7.1c-4.3,0-7.8,2.8-7.8,6.3c0,3.4,3.6,6.3,7.8,6.3c4.2,0,7.8-2.9,7.8-6.3
		C155.1,9.9,151.6,7.1,147.3,7.1 M147.3,17c-2.6,0-4.5-1.5-4.5-3.6c0-2.1,1.9-3.6,4.5-3.6c2.6,0,4.5,1.5,4.5,3.6
		C151.8,15.5,149.9,17,147.3,17z"/>
	<path class="st3" d="M84.3,31.2c0-0.1,0-6.4,0-6.4H81v7.7c0,0.8,0.7,1.5,1.5,1.5h16.4v-2.8C98.9,31.2,84.4,31.2,84.3,31.2"/>
	<path class="st3" d="M98.7,13.9c0-0.1,0-6.1,0-6.1h-3.3v17.9h2.4c0,0,0.9-2.8,0.9-5.9c0-2.2,0-3.2,0-3.2c0.1,0,3.4,0,3.4,0v-2.8
		C102.1,13.9,98.8,13.9,98.7,13.9"/>
	<path class="st3" d="M86.3,9.6V7.2h-3.5v2.4h-6.2v2.8h5c0,0,2.7-0.8,2.9-0.8c0,0,2.9,0.8,2.9,0.8h5V9.6H86.3"/>
	<path class="st3" d="M84.6,10.6c-3.9,0-6.5,2.3-6.5,5.6c0,3.5,2.9,6.4,6.5,6.4c3.6,0,6.6-2.9,6.6-6.4
		C91.1,12.9,88.4,10.6,84.6,10.6 M84.6,20c-1.9,0-3.5-1.8-3.5-3.9c0-2.1,1.6-3.9,3.5-3.9c1.9,0,3.5,1.8,3.5,3.9
		C88.1,18.3,86.5,20,84.6,20z"/>
	<path class="st3" d="M183.1,7.9v5.2h-2V7.9H178v14.6h3.1v-6.7h2v6.6h2.2c0,0,0.9-2.4,0.9-5.9c0-3,0-8.6,0-8.6H183.1"/>
	<path class="st3" d="M171.5,9.6V7.2H168v2.4h-5v2.8h3.9c0,0,2.7-0.8,2.9-0.8c0,0,2.9,0.8,2.9,0.8h3.9V9.6H171.5"/>
	<path class="st3" d="M169.8,10.5c-3.4,0-5.8,2.1-5.8,5.2c0,3.3,2.6,6,5.8,6c3.2,0,5.8-2.7,5.8-6C175.6,12.6,173.2,10.5,169.8,10.5
		 M169.8,19c-1.5,0-2.7-1.5-2.7-3.3c0-1.8,1.3-3.4,2.7-3.4c1.5,0,2.7,1.5,2.7,3.4C172.5,17.5,171.2,19,169.8,19z"/>
	<path class="st3" d="M178,21.7c-4.1,0-7.4,2.8-7.4,6.3c0,3.4,3.4,6.3,7.4,6.3c4,0,7.4-2.9,7.4-6.3C185.4,24.5,182.1,21.7,178,21.7
		 M178,31.7c-2.4,0-4.3-1.6-4.3-3.7c0-2.1,1.8-3.7,4.3-3.7c2.5,0,4.3,1.6,4.3,3.7C182.3,30.1,180.5,31.7,178,31.7z"/>
</g>
</svg>
