<?xml version="1.0" encoding="utf-8"?>
<!-- Generator: Adobe Illustrator 22.0.0, SVG Export Plug-In . SVG Version: 6.00 Build 0)  -->
<svg version="1.1" id="Layer_1" xmlns="http://www.w3.org/2000/svg" xmlns:xlink="http://www.w3.org/1999/xlink" x="0px" y="0px"
	 viewBox="0 0 58.3 58.3" style="enable-background:new 0 0 58.3 58.3;" xml:space="preserve">
<style type="text/css">
	.st0{fill:url(#SVGID_1_);}
	.st1{fill:url(#SVGID_2_);}
	.st2{fill:url(#SVGID_3_);}
</style>
<g>
	<g>
		
			<linearGradient id="SVGID_1_" gradientUnits="userSpaceOnUse" x1="110.9885" y1="-765.4569" x2="84.8878" y2="-739.3563" gradientTransform="matrix(1.4676 -4.300000e-03 4.300000e-03 1.4676 -112.4036 1135.6836)">
			<stop  offset="0.1" style="stop-color:#FFFFFF"/>
			<stop  offset="0.2532" style="stop-color:#C6EDF7"/>
			<stop  offset="0.4572" style="stop-color:#80D6EE"/>
			<stop  offset="0.6414" style="stop-color:#49C5E6"/>
			<stop  offset="0.7989" style="stop-color:#21B8E1"/>
			<stop  offset="0.9236" style="stop-color:#09B0DD"/>
			<stop  offset="1" style="stop-color:#00ADDC"/>
		</linearGradient>
		<path class="st0" d="M58.3,28.8c-0.9-8.1-5.4-13.7-14-14.2c-4.7-0.2-10.5,1.7-14.8,7.7c3.6-4.5,8.8-5.4,12.6-3.3
			c5.8,3.3,5.7,15.2-2.3,22.6c-2,1.8-9.2,7.6-19.6,5.3C9.7,44.5,2.4,35.3,1.7,25.4l0,0C1.3,22.2,2,18.6,3.6,15.1
			C1.3,19.3,0,24.1,0,29.2c0,16.1,13.1,29.1,29.2,29.1c16.1,0,29.1-13.1,29.1-29.2C58.3,29,58.3,28.9,58.3,28.8z"/>
		
			<linearGradient id="SVGID_2_" gradientUnits="userSpaceOnUse" x1="484.6744" y1="-745.7171" x2="497.9828" y2="-769.4305" gradientTransform="matrix(1.4676 -4.300000e-03 4.300000e-03 1.4676 -687.6943 1137.3633)">
			<stop  offset="0" style="stop-color:#FFFFFF"/>
			<stop  offset="1" style="stop-color:#00ADDC"/>
		</linearGradient>
		<path class="st1" d="M29.1,0C18.1,0,8.6,6.1,3.6,15.1C2,18.6,1.3,22.2,1.7,25.4c0.5,4.6,3,8.3,8,9.5c7.1,1.8,12.8-2.2,19.3-11.9
			c0.2-0.2,0.3-0.4,0.5-0.7c4.4-6,10.2-7.9,14.8-7.7c8.6,0.5,13.2,6,14,14.2C58.1,12.8,45.1,0,29.1,0z"/>
		
			<linearGradient id="SVGID_3_" gradientUnits="userSpaceOnUse" x1="86.424" y1="-744.2446" x2="105.0815" y2="-762.902" gradientTransform="matrix(1.4676 -4.300000e-03 4.300000e-03 1.4676 -112.4036 1135.6836)">
			<stop  offset="5.000000e-02" style="stop-color:#FFFFFF"/>
			<stop  offset="0.1547" style="stop-color:#CBEEF8"/>
			<stop  offset="0.2771" style="stop-color:#96DDF1"/>
			<stop  offset="0.4011" style="stop-color:#68CEEA"/>
			<stop  offset="0.5242" style="stop-color:#43C2E5"/>
			<stop  offset="0.6462" style="stop-color:#25B9E1"/>
			<stop  offset="0.7669" style="stop-color:#11B2DE"/>
			<stop  offset="0.8856" style="stop-color:#04AEDD"/>
			<stop  offset="1" style="stop-color:#00ADDC"/>
		</linearGradient>
		<path class="st2" d="M9.6,34.9c-4.9-1.2-7.5-4.9-8-9.5l0,0c0.8,10,8.1,19.1,18.5,21.5c10.4,2.4,17.6-3.4,19.6-5.3
			c8-7.4,8.1-19.3,2.3-22.6c-3.8-2.2-9-1.2-12.6,3.3c-0.2,0.2-0.3,0.4-0.5,0.7C22.4,32.6,16.8,36.6,9.6,34.9z"/>
	</g>
</g>
</svg>
