<?xml version="1.0" encoding="utf-8"?>
<!-- Generator: Adobe Illustrator 22.0.0, SVG Export Plug-In . SVG Version: 6.00 Build 0)  -->
<svg version="1.1" id="Layer_1" xmlns="http://www.w3.org/2000/svg" xmlns:xlink="http://www.w3.org/1999/xlink" x="0px" y="0px"
	 viewBox="0 0 400 400" style="enable-background:new 0 0 400 400;" xml:space="preserve">
<style type="text/css">
	.st0{display:none;fill:#B2B2B2;}
	.st1{fill:#3B454E;}
	.st2{display:none;fill:#3B454E;}
</style>
<path class="st0" d="M56.5,174.3c-7,5.6-13.9,11.2-20.9,16.8c-6.2,5-7,5-11.9-1.2c-9.2-11.5-9.4-9.1,2-18.4
	c52.5-42.4,105-84.7,157.5-127.1c11.7-9.5,21.9-9.5,33.7,0c34.3,27.7,68.7,55.4,103.1,83.1c0.8,0.6,1.6,1.1,3.3,2.3
	c0.2-2.4,0.4-4,0.4-5.7c0-12.8,0-25.7,0-38.5c0-6.6,0.6-7.2,7.1-7.3c11.3-0.1,11.3-0.1,11.3,11c0,16.8,0.2,33.7-0.1,50.5
	c-0.1,4.3,1.4,7,4.7,9.6c11,8.6,21.9,17.4,32.8,26.2c4.6,3.7,4.6,4.6,0.9,9.3c-0.3,0.4-0.6,0.8-0.9,1.2c-9.3,12.1-7.8,10.4-18.9,1.8
	c-5.5-4.3-11-8.7-16.4-13c-0.2-0.2-0.6-0.1-1.7-0.1c-0.1,2-0.3,4.1-0.3,6.1c0,56.3,0,112.6,0,169c0,10-2.8,12.9-12.6,12.9
	c-86.3,0-172.6,0-258.9,0c-9.8,0-12.7-2.8-12.7-12.8c0-56.2,0-112.3,0-168.5c0-2.1,0-4.3,0-6.4C57.4,174.8,56.9,174.5,56.5,174.3z
	 M323.7,250.5c0-29-0.1-58,0.1-87c0-3.9-1.2-6.4-4.3-8.9c-38.2-30.6-76.3-61.4-114.4-92.2c-3.8-3-6.6-3.1-10.5,0
	c-38.1,30.9-76.4,61.8-114.7,92.5c-2.8,2.2-3.7,4.7-3.7,8.1c0.1,58.1,0.1,116.3,0,174.4c0,4.8,1.5,6.4,6.3,6.4
	c20.3-0.2,40.7-0.2,61,0c4.9,0,6.6-1.4,6.5-6.6c-0.2-35-0.1-70-0.1-105c0-7.9,3.3-11.2,11.2-11.2c25.8,0,51.6,0,77.5,0
	c8.5,0,11.6,3.2,11.6,11.8c0,34.7,0,69.3,0,104c0,6.7,0,6.8,6.5,6.8c20.2,0,40.3-0.1,60.5,0.1c4.9,0,6.7-1.4,6.6-6.6
	C323.6,308.5,323.7,279.5,323.7,250.5z M231.6,292.2c0-15.5-0.1-31,0.1-46.5c0.1-4.5-1.5-6.1-6.1-6c-17.2,0.2-34.3,0.2-51.5,0
	c-4.4-0.1-5.8,1.6-5.8,5.8c0.1,31,0.1,62,0,92.9c0,4.2,1.6,5.5,5.6,5.5c17.3-0.1,34.6-0.1,52,0c4.3,0,5.8-1.5,5.8-5.9
	C231.5,322.8,231.6,307.5,231.6,292.2z"/>
<g>
	<path class="st1" d="M118.2,77.4c0-10.1,0-19.8,0-29.4c0-9.3,3.5-12.4,12.5-11.3c5.4,0.6,7.8,3.2,7.9,9c0.1,10.3,0,20.6,0,31.3
		c40.9,0,81.4,0,122.7,0c0-5.6,0-11.2,0-16.8c0-4.2,0-8.3,0-12.5c0-9.1,3.4-12.1,12.3-11.1c5.5,0.6,8,3.1,8.1,8.8
		c0.1,8.7,0,17.3,0,26c0,1.8,0,3.6,0,5.9c9.3,0,18.1-0.4,26.9,0.1c5.7,0.3,11.8,1,16.9,3.3c13,5.9,17.6,17.2,17.6,31
		c-0.1,50.7,0,101.3,0,152c0,22.2,0.1,44.3,0,66.5c-0.1,16.4-8.2,28.1-22.4,32.2c-2.8,0.8-5.9,1.1-8.9,1.1c-74.7,0-149.3,0.1-224,0
		c-14.8,0-26.1-8.8-29.7-22.8c-1-3.6-1.2-7.6-1.2-11.4c-0.1-72.5-0.1-145,0-217.5c0-17.4,8.2-29.8,23-33.1
		c6.9-1.5,14.2-1.1,21.3-1.3C106.7,77.2,112.2,77.4,118.2,77.4z M77.4,159.4c0,2.2,0,3.9,0,5.5c0,54.8,0,109.6,0,164.5
		c0,10.5,3.2,13.8,13.7,13.8c72.7,0,145.3,0,218,0c10.1,0,13.5-3.4,13.5-13.4c0-55,0-110,0-165c0-1.8,0-3.5,0-5.4
		C240.6,159.4,159.3,159.4,77.4,159.4z M77.5,138.3c82,0,163.3,0,245,0c0-10.5,0.1-20.7-0.1-30.8c0-1.9-1-3.9-2.1-5.5
		c-2.7-3.8-6.9-4.1-11.2-4.1c-72.8,0-145.6,0-218.4,0c-1.3,0-2.7,0-4,0.1c-5,0.5-9,4-9.2,8.9C77.3,117.3,77.5,127.6,77.5,138.3z"/>
	<path class="st1" d="M138.8,241.2c-4,0-8,0.1-12,0c-5.5-0.2-8.5-2.8-8.6-8.2c-0.2-8.3-0.2-16.6,0-24.9c0.1-5,2.8-7.7,7.9-7.8
		c8.3-0.2,16.6-0.2,24.9,0c5.2,0.1,8.1,3,8.2,8.1c0.2,8.1,0.2,16.3,0,24.4c-0.2,5.7-3.1,8.3-8.9,8.4
		C146.4,241.2,142.6,241.1,138.8,241.2C138.8,241.1,138.8,241.2,138.8,241.2z"/>
	<path class="st1" d="M159.2,281.9c0,4.2,0.2,8.3,0,12.5c-0.3,5.2-3,8-8.2,8.1c-8.3,0.2-16.6,0.2-24.9,0c-4.6-0.1-7.7-2.7-7.8-7.4
		c-0.2-8.6-0.2-17.3,0-25.9c0.1-4.7,3-7.5,7.6-7.6c8.5-0.2,17-0.2,25.4,0c4.9,0.1,7.5,2.9,7.9,7.9c0.2,2.1,0.1,4.3,0.1,6.5
		C159.3,277.9,159.2,279.9,159.2,281.9C159.2,281.9,159.2,281.9,159.2,281.9z"/>
	<path class="st1" d="M220.5,220.7c0,4,0.1,8,0,12c-0.2,5.3-3.1,8.4-8.4,8.5c-8.1,0.2-16.3,0.2-24.4,0c-5.1-0.1-8-3.1-8.1-8.2
		c-0.2-8.3-0.1-16.6,0-24.9c0.1-4.7,2.8-7.6,7.4-7.8c8.8-0.3,17.6-0.3,26.4,0c4.4,0.1,6.9,3,7.1,7.5
		C220.6,212.1,220.5,216.4,220.5,220.7C220.5,220.7,220.5,220.7,220.5,220.7z"/>
	<path class="st1" d="M281.8,220.6c0,4.2,0.2,8.3,0,12.5c-0.2,5-2.8,7.8-7.8,8c-8.3,0.2-16.6,0.2-25,0c-5.1-0.1-8.1-3.1-8.3-8.1
		c-0.2-8.3-0.2-16.6,0-25c0.1-4.9,2.8-7.7,7.9-7.9c8.5-0.2,17-0.2,25.5,0c5,0.1,7.5,3,7.7,8C282,212.3,281.8,216.5,281.8,220.6
		C281.8,220.6,281.8,220.6,281.8,220.6z"/>
	<path class="st1" d="M240.7,281.7c0-4-0.2-8,0-12c0.2-5.1,3-8.1,8.1-8.2c8.3-0.2,16.6-0.2,24.9,0c5.2,0.1,7.8,2.9,7.9,8.3
		c0.2,8.1,0.2,16.3,0,24.4c-0.1,5.2-2.8,8.1-8,8.2c-8.3,0.2-16.6,0.2-24.9,0c-5.2-0.1-7.8-2.9-8-8.3
		C240.6,290,240.7,285.8,240.7,281.7z"/>
	<path class="st1" d="M179.5,281.3c0-3.8-0.1-7.7,0-11.5c0.2-5.2,2.8-8.2,8-8.3c8.3-0.2,16.7-0.2,25,0c4.9,0.1,7.8,3.1,7.9,7.9
		c0.2,8.3,0.2,16.7,0,25c-0.1,5-2.8,7.9-7.7,8c-8.5,0.3-17,0.3-25.5,0c-4.9-0.2-7.5-3.1-7.7-8.1
		C179.4,289.9,179.5,285.6,179.5,281.3z"/>
</g>
<path class="st2" d="M237,199.8c-21.1-20.9-41.4-41.1-61.7-61.3c-17.2-17.2-34.4-34.4-51.6-51.6c-6.3-6.3-6.3-9.8-0.2-16
	c2.6-2.6,5.2-5.2,7.8-7.8c6.7-6.7,9.8-6.6,16.6,0.2c26.7,26.7,53.5,53.5,80.2,80.2c16.1,16.1,32.3,32.3,48.4,48.4c6,6,6,9.6,0,15.6
	c-43.1,43.2-86.2,86.3-129.3,129.4c-6.3,6.3-9.2,6.3-15.4,0.1c-2.7-2.7-5.4-5.4-8.1-8.1c-6.2-6.2-6.2-9.8-0.1-16
	c25.5-25.6,51-51.2,76.6-76.8C212.1,224.3,224.3,212.4,237,199.8z"/>
</svg>
